# xmcd
#
# Track frame offsets:
#	150
#	13058
#	22756
#	35379
#	45279
#	55262
#	67877
#	79660
#	91683
#	100286
#	114784
#	123154
#
# Disc length: 1766 seconds
#
# Revision: 1
# Processed by: cddbd v1.5.2PL0 Copyright (c) Steve Scherf et al.
# Submitted via: audiograbber 1.83.01
#
DISCID=7b06e40c
DTITLE=Hank Cochran - Hits From The Heart
DYEAR=1965
DGENRE=Country
TTITLE0=I'd Fight The World
TTITLE1=A Little Bitty Tear
TTITLE2=You Comb Her Hair
TTITLE3=Go On Home
TTITLE4=Same Old Hurt
TTITLE5=I Fall To Pieces
TTITLE6=Just For The Record
TTITLE7=Funny Way Of Laughin'
TTITLE8=Make The World Go Away
TTITLE9=Why Can't She Be You
TTITLE10=Tears Broke Out On Me
TTITLE11=He's Got You
EXTD=
EXTT0=
EXTT1=
EXTT2=
EXTT3=
EXTT4=
EXTT5=
EXTT6=
EXTT7=
EXTT8=
EXTT9=
EXTT10=
EXTT11=
PLAYORDER=
